#!OML:ASF Y:\EmotionMaleHayes\Project 1\Capture day 1\Session 1\Male1.ASF
:FULLY-SPECIFIED
:DEGREES
18
root -29.4825 17.0174 1.18554 37.8466 86.1702 38.3434
lowerback 5.32334 1.75766 -5.16417
upperback 0.780567 2.05593 -0.27715
thorax -2.35007 1.07585 2.45733
lowerneck -21.1642 2.10368 3.53885
upperneck 24.5472 2.52755 -1.91191
head 11.6005 1.30451 -0.878609
rclavicle -1.00014e-015 6.21202e-015
rhumerus -34.7826 6.39203 -89.9693
rradius 30.2868
rwrist 4.45897
rhand -10.2505 -31.0408
rfingers 7.12502
rthumb 15.7424 -60.4206
lclavicle -1.00014e-015 6.21202e-015
lhumerus -31.7474 -8.06229 91.4268
lradius 23.1886
lwrist -16.0501
lhand -18.2716 -27.523
lfingers 7.12502
lthumb 8.00825 2.30524
rfemur 9.59591 -3.01088 8.94548
rtibia 2.36412
rfoot -15.4041 -4.25761
rtoes -3.31677
lfemur 12.4711 -1.52878 -15.2883
ltibia -2.33134
lfoot -12.3403 13.8169
ltoes -7.42791
19
root -29.4827 17.0154 1.18491 36.2177 86.1979 36.7092
lowerback 5.2931 1.76049 -5.07091
upperback 0.792557 2.06783 -0.233309
thorax -2.32009 1.08007 2.45061
lowerneck -21.2038 2.0975 3.5333
upperneck 24.5747 2.53098 -1.95056
head 11.6193 1.30026 -0.891229
rclavicle 8.14085e-015 1.78906e-015
rhumerus -34.7484 6.39168 -89.9395
rradius 30.2539
rwrist 4.52928
rhand -10.235 -30.8416
rfingers 7.12502
rthumb 15.7573 -60.2201
lclavicle 8.14085e-015 1.78906e-015
lhumerus -31.7346 -7.98096 91.4143
lradius 23.1878
lwrist -16.1433
lhand -18.2469 -27.544
lfingers 7.12502
lthumb 8.03207 2.28338
rfemur 9.56431 -3.03118 9.06869
rtibia 2.38492
rfoot -15.4433 -4.23614
rtoes -3.14799
lfemur 12.5115 -1.49172 -15.1513
ltibia -2.39797
lfoot -12.231 13.883
ltoes -7.87145
20
root -29.4856 17.0166 1.18605 34.4486 86.3309 34.9762
lowerback 5.4309 1.75354 -4.88138
upperback 0.755537 2.06023 -0.210088
thorax -2.42913 1.07748 2.36444
lowerneck -21.1807 2.08938 3.54232
upperneck 24.651 2.52114 -1.94668
head 11.6438 1.29892 -0.892947
rclavicle 5.65294e-015 -1.39149e-015
rhumerus -34.8167 6.33411 -89.9875
rradius 30.2416
rwrist 4.57806
rhand -10.2951 -30.9513
rfingers 7.12502
rthumb 15.6994 -60.3344
lclavicle 5.65294e-015 -1.39149e-015
lhumerus -31.8615 -8.27219 91.4742
lradius 23.2971
lwrist -15.9114
lhand -18.2455 -27.5193
lfingers 7.12502
lthumb 8.03336 2.30806
rfemur 9.6182 -2.88034 9.33284
rtibia 2.34383
rfoot -15.5191 -4.39204
rtoes -2.80855
lfemur 12.5268 -1.5037 -14.9149
ltibia -2.39199
lfoot -12.2117 13.8909
ltoes -8.09466
21
root -29.4872 17.0179 1.18702 35.1484 86.3708 35.6866
lowerback 5.48062 1.72615 -4.93656
upperback 0.74605 2.01801 -0.174735
thorax -2.46665 1.058 2.43366
lowerneck -21.1443 2.10044 3.4789
upperneck 24.6474 2.56442 -1.95844
head 11.6358 1.31127 -0.879883
rclavicle 4.24902e-015 -7.7526e-015
rhumerus -34.8523 6.45563 -89.9989
rradius 30.2661
rwrist 4.50738
rhand -10.5758 -30.8815
rfingers 7.12502
rthumb 15.4291 -60.2857
lclavicle 4.24902e-015 -7.7526e-015
lhumerus -31.9381 -8.35302 91.5642
lradius 23.4043
lwrist -15.7708
lhand -17.7031 -27.3854
lfingers 7.12502
lthumb 8.55688 2.42123
rfemur 9.67684 -2.8295 9.32664
rtibia 2.2599
rfoot -15.4899 -4.46028
rtoes -2.64045
lfemur 12.5147 -1.57352 -14.937
ltibia -2.3946
lfoot -12.2429 13.8673
ltoes -7.20283
22
root -29.4855 17.0158 1.18802 35.605 86.2483 36.0651
lowerback 5.34133 1.7252 -5.08025
upperback 0.745215 2.01664 -0.159793
thorax -2.39492 1.05703 2.53358
lowerneck -21.1556 2.13018 3.46908
upperneck 24.6174 2.61939 -1.99917
head 11.6287 1.32892 -0.884426
rclavicle 4.62485e-015 3.97569e-015
rhumerus -34.8778 6.59377 -89.991
rradius 30.3058
rwrist 4.45997
rhand -10.824 -30.4849
rfingers 7.12502
rthumb 15.19 -59.9073
lclavicle 4.62485e-015 3.97569e-015
lhumerus -31.9548 -8.33302 91.6251
lradius 23.4481
lwrist -15.6986
lhand -17.4659 -27.2286
lfingers 7.12502
lthumb 8.78575 2.56857
rfemur 9.62478 -2.96306 9.16278
rtibia 2.17943
rfoot -15.3466 -4.25494
rtoes -2.81287
lfemur 12.4575 -1.45967 -15.021
ltibia -2.40059
lfoot -12.2724 13.8106
ltoes -7.91121
23
root -29.4884 17.0176 1.18765 37.0987 86.2393 37.6154
lowerback 5.44534 1.69217 -5.18264
upperback 0.742131 1.96054 -0.165729
thorax -2.4549 1.03159 2.58632
lowerneck -21.1682 2.15985 3.47102
upperneck 24.6072 2.65488 -1.98376
head 11.6282 1.34664 -0.873222
rclavicle -9.79946e-016 3.08116e-015
rhumerus -34.9561 6.65472 -89.9763
rradius 30.3872
rwrist 4.4738
rhand -10.5555 -30.6565
rfingers 7.12502
rthumb 15.4487 -60.0591
lclavicle -9.79946e-016 3.08116e-015
lhumerus -31.9865 -8.26168 91.6237
lradius 23.4296
lwrist -15.7162
lhand -18.0411 -27.288
lfingers 7.12502
lthumb 8.23067 2.53172
rfemur 9.69985 -3.04746 9.00678
rtibia 2.14954
rfoot -15.2863 -4.20813
rtoes -2.63968
lfemur 12.4544 -1.53752 -15.1573
ltibia -2.33981
lfoot -12.2611 13.8589
ltoes -7.7358
